<svg height="496pt" viewBox="0 0 496 496" width="496pt" xmlns="http://www.w3.org/2000/svg"><path d="m480 408-16 40 16 40h-144l64-48v-32zm0 0" fill="#ffeaa7"/><path d="m160 488h-144l16-40-16-40h80v32zm0 0" fill="#ffeaa7"/><path d="m400 440-64 48v-48zm0 0" fill="#fcd770"/><path d="m160 440v48l-64-48zm0 0" fill="#fcd770"/><path d="m248 328h152v112h-304v-112zm0 0" fill="#ffeaa7"/><path d="m358.878906 136-27.679687 16c-16.558594-28.640625-47.597657-48-83.199219-48v-32c47.359375 0 88.800781 25.761719 110.878906 64zm0 0" fill="#e6e9ed"/><path d="m331.199219 248 27.679687 16c-22.078125 38.238281-63.519531 64-110.878906 64v-32c35.601562 0 66.640625-19.359375 83.199219-48zm0 0" fill="#e6e9ed"/><path d="m164.800781 248-27.679687 16c-10.882813-18.800781-17.121094-40.640625-17.121094-64s6.238281-45.199219 17.121094-64l27.679687 16c-8.160156 14.078125-12.800781 30.480469-12.800781 48s4.640625 33.921875 12.800781 48zm0 0" fill="#e6e9ed"/><path d="m358.878906 136c10.882813 18.800781 17.121094 40.640625 17.121094 64s-6.238281 45.199219-17.121094 64l-27.679687-16c8.160156-14.078125 12.800781-30.480469 12.800781-48s-4.640625-33.921875-12.800781-48zm0 0" fill="#ff826e"/><path d="m248 296v32c-47.359375 0-88.800781-25.761719-110.878906-64l27.679687-16c16.558594 28.640625 47.597657 48 83.199219 48zm0 0" fill="#ff826e"/><path d="m248 72v32c-35.601562 0-66.640625 19.359375-83.199219 48l-27.679687-16c22.078125-38.238281 63.519531-64 110.878906-64zm0 0" fill="#ff826e"/><path d="m331.199219 152c8.160156 14.078125 12.800781 30.480469 12.800781 48s-4.640625 33.921875-12.800781 48c-16.558594 28.640625-47.597657 48-83.199219 48s-66.640625-19.359375-83.199219-48c-8.160156-14.078125-12.800781-30.480469-12.800781-48s4.640625-33.921875 12.800781-48c16.558594-28.640625 47.597657-48 83.199219-48s66.640625 19.359375 83.199219 48zm0 0" fill="#fcd770"/><g fill="#69d6f4"><path d="m472 192c0 17.671875-14.328125 32-32 32s-32-14.328125-32-32 14.328125-32 32-32 32 14.328125 32 32zm0 0"/><path d="m488 40c0 17.671875-14.328125 32-32 32s-32-14.328125-32-32 14.328125-32 32-32 32 14.328125 32 32zm0 0"/><path d="m152 40c0 17.671875-14.328125 32-32 32s-32-14.328125-32-32 14.328125-32 32-32 32 14.328125 32 32zm0 0"/><path d="m72 136c0 17.671875-14.328125 32-32 32s-32-14.328125-32-32 14.328125-32 32-32 32 14.328125 32 32zm0 0"/></g><path d="m344 352 24 32-24 32-24-32zm0 0" fill="#ff826e"/><path d="m248 352 24 32-24 32-24-32zm0 0" fill="#ff826e"/><path d="m152 352 24 32-24 32-24-32zm0 0" fill="#ff826e"/><path d="m248 240c-8.824219 0-16-7.175781-16-16h-16c0 14.871094 10.230469 27.289062 24 30.863281v17.136719h16v-16h24v-32c0-17.648438-14.351562-32-32-32-8.824219 0-16-7.175781-16-16v-16h16c8.824219 0 16 7.175781 16 16h16c0-14.871094-10.230469-27.289062-24-30.863281v-17.136719h-16v16h-24v32c0 17.648438 14.351562 32 32 32 8.824219 0 16 7.175781 16 16v16zm0 0"/><path d="m176 192h16v16h-16zm0 0"/><path d="m304 192h16v16h-16zm0 0"/><path d="m282 384-34-45.335938-34 45.335938 34 45.335938zm-34-18.664062 14 18.664062-14 18.664062-14-18.664062zm0 0"/><path d="m378 384-34-45.335938-34 45.335938 34 45.335938zm-34-18.664062 14 18.664062-14 18.664062-14-18.664062zm0 0"/><path d="m186 384-34-45.335938-34 45.335938 34 45.335938zm-34-18.664062 14 18.664062-14 18.664062-14-18.664062zm0 0"/><path d="m408 400v-80h-96.136719c42.871094-22.910156 72.136719-68.089844 72.136719-120 0-74.992188-61.007812-136-136-136s-136 61.007812-136 136c0 51.910156 29.265625 97.089844 72.136719 120h-96.136719v80h-83.816406l19.191406 48-19.191406 48h163.816406v-48h160v48h163.816406l-19.191406-48 19.191406-48zm-152-80.40625v-16c32.230469-2.472656 60.398438-19.625 77.734375-44.859375l13.914063 8.035156c-20.160157 29.992188-53.503907 50.292969-91.648438 52.824219zm99.566406-66.730469-13.878906-8.015625c6.535156-13.601562 10.3125-28.777344 10.3125-44.847656 0-15.785156-3.574219-31.070312-10.207031-44.910156l13.765625-7.953125c7.890625 15.976562 12.441406 33.878906 12.441406 52.863281s-4.550781 36.886719-12.433594 52.863281zm-115.566406-172.457031v16c-32.230469 2.472656-60.398438 19.625-77.734375 44.859375l-13.914063-8.035156c20.160157-29.992188 53.503907-50.292969 91.648438-52.824219zm-99.566406 66.730469 13.878906 8.015625c-6.535156 13.601562-10.3125 28.777344-10.3125 44.847656 0 15.785156 3.574219 31.070312 10.207031 44.910156l-13.765625 7.953125c-7.890625-15.976562-12.441406-33.878906-12.441406-52.863281s4.550781-36.886719 12.433594-52.863281zm7.917968 119.632812 13.96875-8.066406c5.441407 7.921875 11.878907 15.21875 19.472657 21.496094l10.183593-12.328125c-20.320312-16.800782-31.976562-41.542969-31.976562-67.871094 0-48.519531 39.480469-88 88-88 15.59375 0 30.992188 4.222656 44.542969 12.207031l8.128906-13.78125c-13.695313-8.074219-28.992187-12.859375-44.671875-14.089843v-15.9375c38.144531 2.539062 71.488281 22.839843 91.648438 52.824218l-13.96875 8.066406c-5.441407-7.921874-11.878907-15.21875-19.472657-21.496093l-10.183593 12.328125c20.320312 16.808594 31.976562 41.550781 31.976562 67.878906 0 48.519531-39.480469 88-88 88-15.59375 0-30.992188-4.222656-44.542969-12.207031l-8.128906 13.78125c13.695313 8.074219 28.992187 12.859375 44.671875 14.089843v15.9375c-38.144531-2.539062-71.488281-22.839843-91.648438-52.832031zm243.648438 69.230469v96h-288v-96zm-364.183594 80h60.183594v28l48 36h-108.183594l12.808594-32zm124.183594 56-32-24h32zm224-24-32 24v-24zm92.183594 32h-108.183594l48-36v-28h60.183594l-12.808594 32zm0 0"/><path d="m488 32c-13.230469 0-24-10.769531-24-24v-8h-16v8c0 13.230469-10.769531 24-24 24h-8v16h8c13.230469 0 24 10.769531 24 24v8h16v-8c0-13.230469 10.769531-24 24-24h8v-16zm-32 16.246094c-2.335938-3.140625-5.105469-5.910156-8.246094-8.246094 3.140625-2.335938 5.910156-5.105469 8.246094-8.246094 2.335938 3.140625 5.105469 5.910156 8.246094 8.246094-3.140625 2.335938-5.910156 5.105469-8.246094 8.246094zm0 0"/><path d="m32 168v8h16v-8c0-13.230469 10.769531-24 24-24h8v-16h-8c-13.230469 0-24-10.769531-24-24v-8h-16v8c0 13.230469-10.769531 24-24 24h-8v16h8c13.230469 0 24 10.769531 24 24zm8-40.246094c2.335938 3.140625 5.105469 5.910156 8.246094 8.246094-3.140625 2.335938-5.910156 5.105469-8.246094 8.246094-2.335938-3.140625-5.105469-5.910156-8.246094-8.246094 3.140625-2.335938 5.910156-5.105469 8.246094-8.246094zm0 0"/><path d="m112 72v8h16v-8c0-13.230469 10.769531-24 24-24h8v-16h-8c-13.230469 0-24-10.769531-24-24v-8h-16v8c0 13.230469-10.769531 24-24 24h-8v16h8c13.230469 0 24 10.769531 24 24zm8-40.246094c2.335938 3.140625 5.105469 5.910156 8.246094 8.246094-3.140625 2.335938-5.910156 5.105469-8.246094 8.246094-2.335938-3.140625-5.105469-5.910156-8.246094-8.246094 3.140625-2.335938 5.910156-5.105469 8.246094-8.246094zm0 0"/><path d="m432 152v8c0 13.230469-10.769531 24-24 24h-8v16h8c13.230469 0 24 10.769531 24 24v8h16v-8c0-13.230469 10.769531-24 24-24h8v-16h-8c-13.230469 0-24-10.769531-24-24v-8zm16.246094 40c-3.140625 2.335938-5.910156 5.105469-8.246094 8.246094-2.335938-3.140625-5.105469-5.910156-8.246094-8.246094 3.140625-2.335938 5.910156-5.105469 8.246094-8.246094 2.335938 3.140625 5.105469 5.910156 8.246094 8.246094zm0 0"/><path d="m328 0h16v16h-16zm0 0"/><path d="m328 32h16v16h-16zm0 0"/><path d="m344 16h16v16h-16zm0 0"/><path d="m312 16h16v16h-16zm0 0"/><path d="m56 224h16v16h-16zm0 0"/><path d="m56 256h16v16h-16zm0 0"/><path d="m72 240h16v16h-16zm0 0"/><path d="m40 240h16v16h-16zm0 0"/><path d="m16 280h16v16h-16zm0 0"/><path d="m16 312h16v16h-16zm0 0"/><path d="m32 296h16v16h-16zm0 0"/><path d="m0 296h16v16h-16zm0 0"/><path d="m384 64h16v16h-16zm0 0"/><path d="m384 96h16v16h-16zm0 0"/><path d="m400 80h16v16h-16zm0 0"/><path d="m368 80h16v16h-16zm0 0"/><path d="m464 280h16v16h-16zm0 0"/><path d="m464 312h16v16h-16zm0 0"/><path d="m480 296h16v16h-16zm0 0"/><path d="m448 296h16v16h-16zm0 0"/></svg>