<svg height="496pt" viewBox="0 0 496 496" width="496pt" xmlns="http://www.w3.org/2000/svg"><path d="m40 296h-32v192h480v-192h-32" fill="#52575f"/><path d="m40 264h416v192h-416zm0 0" fill="#666d77"/><path d="m272 400c0 13.253906-10.746094 24-24 24s-24-10.746094-24-24 10.746094-24 24-24 24 10.746094 24 24zm0 0" fill="#eebc5a"/><path d="m72 264v48h352v-48" fill="#dbaf89"/><path d="m104 312v32h288v-32" fill="#bc8f6f"/><path d="m232 264v-256h-176v256" fill="#74c865"/><path d="m264 264v-224h-176v224" fill="#5da351"/><path d="m120 264v-176c8.839844 0 16-7.160156 16-16h80c0 8.839844 7.160156 16 16 16v176" fill="#74c865"/><path d="m192 120c0 8.835938-7.164062 16-16 16s-16-7.164062-16-16 7.164062-16 16-16 16 7.164062 16 16zm0 0" fill="#5da351"/><path d="m480 128c0 44.183594-35.816406 80-80 80s-80-35.816406-80-80 35.816406-80 80-80 80 35.816406 80 80zm0 0" fill="#eebc5a"/><path d="m456 128c0 30.929688-25.070312 56-56 56s-56-25.070312-56-56 25.070312-56 56-56 56 25.070312 56 56zm0 0" fill="#f8cf6a"/><path d="m456 168c0 44.183594-35.816406 80-80 80s-80-35.816406-80-80 35.816406-80 80-80 80 35.816406 80 80zm0 0" fill="#eebc5a"/><path d="m432 168c0 30.929688-25.070312 56-56 56s-56-25.070312-56-56 25.070312-56 56-56 56 25.070312 56 56zm0 0" fill="#f8cf6a"/><path d="m488 496h-480c-4.414062 0-8-3.574219-8-8v-192c0-4.425781 3.585938-8 8-8h32v16h-24v176h464v-176h-24v-16h32c4.414062 0 8 3.574219 8 8v192c0 4.425781-3.585938 8-8 8zm0 0"/><path d="m456 464h-416c-4.414062 0-8-3.574219-8-8v-192c0-4.425781 3.585938-8 8-8h416c4.414062 0 8 3.574219 8 8v192c0 4.425781-3.585938 8-8 8zm-408-16h400v-176h-400zm0 0"/><path d="m248 432c-17.648438 0-32-14.351562-32-32s14.351562-32 32-32 32 14.351562 32 32-14.351562 32-32 32zm0-48c-8.824219 0-16 7.175781-16 16s7.175781 16 16 16 16-7.175781 16-16-7.175781-16-16-16zm0 0"/><path d="m64 264h-16v-256c0-4.425781 3.585938-8 8-8h176c4.414062 0 8 3.574219 8 8v32h-16v-24h-160zm0 0"/><path d="m272 264h-16v-216h-160v216h-16v-224c0-4.425781 3.585938-8 8-8h176c4.414062 0 8 3.574219 8 8zm0 0"/><path d="m240 264h-16v-169.367188c-6.808594-2.417968-12.214844-7.824218-14.632812-14.632812h-66.742188c-2.417969 6.816406-7.824219 12.214844-14.632812 14.632812v169.367188h-16v-176c0-4.425781 3.582031-8 8-8 4.40625 0 8-3.585938 8-8 0-4.425781 3.582031-8 8-8h80c4.414062 0 8 3.574219 8 8 0 4.414062 3.59375 8 8 8 4.414062 0 8 3.574219 8 8v176zm0 0"/><path d="m176 144c-13.230469 0-24-10.769531-24-24s10.769531-24 24-24 24 10.769531 24 24-10.769531 24-24 24zm0-32c-4.40625 0-8 3.585938-8 8s3.59375 8 8 8 8-3.585938 8-8-3.59375-8-8-8zm0 0"/><path d="m208 248h-16v-28c0-2.199219-1.792969-4-4-4s-4 1.800781-4 4v8c0 11.03125-8.976562 20-20 20s-20-8.96875-20-20v-28h16v28c0 2.199219 1.792969 4 4 4s4-1.800781 4-4v-8c0-11.03125 8.976562-20 20-20s20 8.96875 20 20zm0 0"/><path d="m136 216h16v16h-16zm0 0"/><path d="m200 216h16v16h-16zm0 0"/><path d="m424 320h-352c-4.414062 0-8-3.574219-8-8v-48h16v40h336v-40h16v48c0 4.425781-3.585938 8-8 8zm0 0"/><path d="m392 352h-288c-4.414062 0-8-3.574219-8-8v-32h16v24h272v-24h16v32c0 4.425781-3.585938 8-8 8zm0 0"/><path d="m384 208h-40v-16h40c4.40625 0 8-3.585938 8-8s-3.59375-8-8-8h-16c-13.230469 0-24-10.769531-24-24s10.769531-24 24-24h40v16h-40c-4.40625 0-8 3.585938-8 8s3.59375 8 8 8h16c13.230469 0 24 10.769531 24 24s-10.769531 24-24 24zm0 0"/><path d="m368 112h16v24h-16zm0 0"/><path d="m368 200h16v24h-16zm0 0"/><path d="m376 256c-48.519531 0-88-39.480469-88-88s39.480469-88 88-88 88 39.480469 88 88-39.480469 88-88 88zm0-160c-39.695312 0-72 32.296875-72 72s32.304688 72 72 72 72-32.296875 72-72-32.304688-72-72-72zm0 0"/><path d="m459.015625 193.273438-10.734375-11.859376c15.070312-13.636718 23.71875-33.109374 23.71875-53.414062 0-39.703125-32.304688-72-72-72-33.167969 0-61.910156 22.457031-69.878906 54.601562l-15.527344-3.859374c9.742188-39.292969 44.871094-66.742188 85.40625-66.742188 48.519531 0 88 39.480469 88 88 0 24.824219-10.566406 48.609375-28.984375 65.273438zm0 0"/></svg>