<?xml version="1.0"?>
<svg xmlns="http://www.w3.org/2000/svg" viewBox="0 0 64 64" width="512" height="512"><g id="Filled_outline" data-name="Filled outline"><path d="M56,43H51V41h4V28h2V42A1,1,0,0,1,56,43Z" style="fill:#6b809b"/><rect x="15" y="45" width="34" height="16" style="fill:#f98c96"/><path d="M23,3H41a8,8,0,0,1,8,8v4a0,0,0,0,1,0,0H15a0,0,0,0,1,0,0V11A8,8,0,0,1,23,3Z" style="fill:#f98c96"/><rect x="15" y="19" width="34" height="20" style="fill:#cb2e5c"/><rect x="12" y="39" width="40" height="6" style="fill:#9362f5"/><rect x="15" y="15" width="34" height="4" style="fill:#9362f5"/><rect x="15" y="23" width="11" height="12" style="fill:#f1d77e"/><rect x="26" y="23" width="12" height="12" style="fill:#f2ba2f"/><rect x="38" y="23" width="11" height="12" style="fill:#f1d77e"/><polygon points="22.375 26.219 20.5 27.719 18.625 26.219 17.375 27.781 18.899 29 17.375 30.219 18.625 31.781 20.5 30.281 22.375 31.781 23.625 30.219 22.101 29 23.625 27.781 22.375 26.219" style="fill:#cb2e5c"/><polygon points="46.625 27.781 45.375 26.219 43.5 27.719 41.625 26.219 40.375 27.781 41.899 29 40.375 30.219 41.625 31.781 43.5 30.281 45.375 31.781 46.625 30.219 45.101 29 46.625 27.781" style="fill:#cb2e5c"/><polygon points="34.445 26.168 32 27.798 29.555 26.168 28.445 27.832 30.197 29 28.445 30.168 29.555 31.832 32 30.202 34.445 31.832 35.555 30.168 33.803 29 35.555 27.832 34.445 26.168" style="fill:#cb2e5c"/><circle cx="56" cy="26" r="3" style="fill:#cb2e5c"/><path d="M45,57s-4-2-13-2-13,2-13,2V51s4-2,13-2,13,2,13,2Z" style="fill:#f1d77e"/><rect x="26" y="49" width="2" height="3" style="fill:#f2ba2f"/><rect x="22" y="53" width="2" height="3" style="fill:#f2ba2f"/><rect x="31" y="52" width="2" height="3" style="fill:#f2ba2f"/><rect x="36" y="50" width="2" height="2" style="fill:#f2ba2f"/><rect x="40" y="53" width="2" height="3" style="fill:#f2ba2f"/><rect x="23" y="7" width="18" height="4" style="fill:#dd3e46"/><path d="M14,62H50V46h3V43h3a1,1,0,0,0,1-1V28.816a3,3,0,1,0-2,0V41H53V38H50V11a9.01,9.01,0,0,0-9-9H23a9.01,9.01,0,0,0-9,9V38H11v8h3ZM56,25a1,1,0,1,1-1,1A1,1,0,0,1,56,25ZM48,60H16V46H48ZM16,11a7.008,7.008,0,0,1,7-7H41a7.008,7.008,0,0,1,7,7v3H16Zm0,5H48v2H16Zm0,4H48v2H16Zm32,4V34H39V24ZM37,24V34H27V24ZM16,24h9V34H16Zm0,12H48v2H16Zm-3,8V40H51v4Z"/><polygon points="22.375 26.219 20.5 27.719 18.625 26.219 17.375 27.781 18.899 29 17.375 30.219 18.625 31.781 20.5 30.281 22.375 31.781 23.625 30.219 22.101 29 23.625 27.781 22.375 26.219"/><polygon points="41.625 31.781 43.5 30.281 45.375 31.781 46.625 30.219 45.101 29 46.625 27.781 45.375 26.219 43.5 27.719 41.625 26.219 40.375 27.781 41.899 29 40.375 30.219 41.625 31.781"/><polygon points="29.555 31.832 32 30.202 34.445 31.832 35.555 30.168 33.803 29 35.555 27.832 34.445 26.168 32 27.798 29.555 26.168 28.445 27.832 30.197 29 28.445 30.168 29.555 31.832"/><path d="M18.473,57.848a1,1,0,0,0,.97.048C19.482,57.877,23.408,56,32,56c8.556,0,12.484,1.861,12.556,1.9A1,1,0,0,0,46,57V51a1,1,0,0,0-.553-.9C45.275,50.02,41.131,48,32,48s-13.275,2.02-13.447,2.1A1,1,0,0,0,18,51v6A1,1,0,0,0,18.473,57.848ZM20,51.669a27.129,27.129,0,0,1,6-1.324V52h2V50.149c1.2-.092,2.528-.149,4-.149s2.8.057,4,.149V52h2V50.345a27.068,27.068,0,0,1,6,1.324v3.88c-.518-.168-1.191-.357-2-.544V53H40v1.612a47.464,47.464,0,0,0-7-.593V52H31v2.019a47.464,47.464,0,0,0-7,.593V53H22v2.005c-.809.187-1.482.376-2,.544Z"/><path d="M22,12H42V6H22Zm2-4H40v2H24Z"/></g></svg>
