<svg height="496pt" viewBox="0 0 496 496" width="496pt" xmlns="http://www.w3.org/2000/svg"><path d="m488 424-16 32h-448l-16-32zm0 0" fill="#fcd770"/><path d="m488 328v96h-480v-96zm0 0" fill="#e6e9ed"/><path d="m40 456h416v32h-416zm0 0" fill="#838f9b"/><path d="m128 360h240v32h-240zm0 0" fill="#fcd770"/><path d="m488 112v112h-8l-78.71875-10.238281c-19.679688 66-80.800781 114.238281-153.28125 114.238281-88.398438 0-160-71.601562-160-160s71.601562-160 160-160c72.480469 0 133.601562 48.238281 153.28125 114.238281l78.71875-10.238281zm0 0" fill="#ffeaa7"/><g fill="#e6e9ed"><path d="m376 168h-48c0-22.078125-8.960938-42.078125-23.441406-56.558594l34-34c23.121094 23.199219 37.441406 55.199219 37.441406 90.558594zm0 0"/><path d="m338.480469 258.480469.078125.078125c-23.199219 23.121094-55.199219 37.441406-90.558594 37.441406v-48c22.078125 0 42.078125-8.960938 56.558594-23.441406zm0 0"/><path d="m168 168c0 22.078125 8.960938 42.078125 23.441406 56.558594l-34 34c-23.121094-23.199219-37.441406-55.199219-37.441406-90.558594zm0 0"/><path d="m248 40v48c-22.078125 0-42.078125 8.960938-56.558594 23.441406l-34-34c23.199219-23.121094 55.199219-37.441406 90.558594-37.441406zm0 0"/></g><path d="m338.558594 77.441406-34 34c-14.480469-14.480468-34.480469-23.441406-56.558594-23.441406v-48c35.359375 0 67.359375 14.320312 90.558594 37.441406zm0 0" fill="#ff826e"/><path d="m328 168h48c0 35.359375-14.320312 67.359375-37.441406 90.558594l-34-34c14.480468-14.480469 23.441406-34.480469 23.441406-56.558594zm0 0" fill="#ff826e"/><path d="m248 248v48c-35.359375 0-67.359375-14.320312-90.558594-37.441406l34-34c14.480469 14.480468 34.480469 23.441406 56.558594 23.441406zm0 0" fill="#ff826e"/><path d="m120 168c0-35.359375 14.320312-67.359375 37.441406-90.558594l34 34c-14.480468 14.480469-23.441406 34.480469-23.441406 56.558594zm0 0" fill="#ff826e"/><path d="m304.558594 111.441406c14.480468 14.480469 23.441406 34.480469 23.441406 56.558594s-8.960938 42.078125-23.441406 56.558594c-14.480469 14.480468-34.480469 23.441406-56.558594 23.441406s-42.078125-8.960938-56.558594-23.441406c-14.480468-14.480469-23.441406-34.480469-23.441406-56.558594s8.960938-42.078125 23.441406-56.558594c14.480469-14.480468 34.480469-23.441406 56.558594-23.441406s42.078125 8.960938 56.558594 23.441406zm0 0" fill="#ccd1d9"/><path d="m289.359375 153.359375c4.242187 4.242187 6.640625 10 6.640625 16 0 6.242187-2.558594 11.921875-6.640625 16-4.078125 4.082031-9.757813 6.640625-16 6.640625-6 0-11.757813-2.398438-16-6.640625l-9.359375-9.359375-9.359375 9.359375c-4.242187 4.242187-10 6.640625-16 6.640625-6.242187 0-11.921875-2.558594-16-6.640625-4.082031-4.078125-6.640625-9.757813-6.640625-16 0-6 2.398438-11.757813 6.640625-16l41.359375-41.359375zm0 0" fill="#ff826e"/><path d="m456 144v48l-48-24zm0 0" fill="#e6e9ed"/><path d="m248 32c-74.992188 0-136 61.007812-136 136s61.007812 136 136 136 136-61.007812 136-136-61.007812-136-136-136zm0 208c-39.695312 0-72-32.296875-72-72s32.304688-72 72-72 72 32.296875 72 72-32.304688 72-72 72zm56.273438-139.585938c-13.335938-11.125-30.007813-18.351562-48.273438-20.007812v-32c27.0625 1.800781 51.65625 12.554688 70.886719 29.394531zm-64.273438-20.007812c-18.265625 1.65625-34.929688 8.890625-48.273438 20.007812l-22.613281-22.613281c19.230469-16.839843 43.824219-27.601562 70.886719-29.394531zm-59.585938 31.320312c-11.125 13.335938-18.351562 30.007813-20.007812 48.273438h-32c1.800781-27.0625 12.554688-51.65625 29.394531-70.886719zm-20.007812 64.273438c1.65625 18.265625 8.890625 34.929688 20.007812 48.273438l-22.613281 22.613281c-16.839843-19.230469-27.601562-43.824219-29.394531-70.886719zm31.320312 59.585938c13.335938 11.125 30.007813 18.351562 48.273438 20.007812v32c-27.0625-1.800781-51.65625-12.554688-70.886719-29.394531zm64.273438 20.007812c18.265625-1.65625 34.929688-8.890625 48.273438-20.007812l22.613281 22.613281c-19.230469 16.839843-43.824219 27.601562-70.886719 29.394531zm59.585938-31.320312c11.125-13.335938 18.351562-30.007813 20.007812-48.273438h32c-1.800781 27.0625-12.554688 51.65625-29.394531 70.886719zm20.007812-64.273438c-1.65625-18.265625-8.890625-34.929688-20.007812-48.273438l22.613281-22.613281c16.839843 19.230469 27.601562 43.824219 29.394531 70.886719zm0 0"/><path d="m295.023438 147.71875-47.023438-47.03125-47.023438 47.03125c-5.792968 5.785156-8.976562 13.464844-8.976562 21.65625 0 16.882812 13.734375 30.625 30.632812 30.625 6.304688 0 12.296876-1.9375 17.367188-5.449219v29.449219h16v-29.449219c5.078125 3.511719 11.0625 5.449219 17.367188 5.449219 16.898437 0 30.632812-13.742188 30.632812-30.625 0-8.191406-3.183594-15.871094-8.976562-21.65625zm-21.65625 36.28125c-3.902344 0-7.582032-1.519531-10.34375-4.28125l-15.023438-15.03125-15.023438 15.03125c-2.769531 2.761719-6.441406 4.28125-10.34375 4.28125-8.074218 0-14.632812-6.558594-14.632812-14.625 0-3.847656 1.558594-7.613281 4.289062-10.34375l35.710938-35.71875 35.71875 35.71875c2.722656 2.730469 4.28125 6.488281 4.28125 10.34375 0 8.066406-6.558594 14.625-14.632812 14.625zm0 0"/><path d="m376 352h-256v48h256zm-144 16h32v16h-32zm-16 16h-32v-16h32zm64-16h32v16h-32zm-144 0h32v16h-32zm224 16h-32v-16h32zm0 0"/><path d="m406.855469 222.527344 72.105469 9.402344 17.039062.070312v-128h-16l-73.144531 9.472656c-23.0625-67.152344-87.421875-113.472656-158.855469-113.472656-92.640625 0-168 75.367188-168 168 0 67.207031 39.761719 125.160156 96.910156 152h-176.910156v105.886719l19.054688 38.113281h12.945312v32h432v-32h12.945312l19.054688-38.113281v-105.886719h-177.191406c40.519531-19.039062 73.046875-53.792969 88.046875-97.472656zm41.144531 257.472656h-400v-16h400zm-419.054688-32-8-16h454.109376l-8 16zm451.054688-112v80h-464v-80zm-232-16c-83.816406 0-152-68.183594-152-152s68.183594-152 152-152c66.6875 0 126.566406 44.640625 145.617188 108.542969l1.941406 6.527343 84.441406-11v95.859376l-84.441406-11.007813-1.941406 6.527344c-19.050782 63.910156-78.929688 108.550781-145.617188 108.550781zm0 0"/><path d="m464 131.054688-73.886719 36.945312 73.886719 36.945312zm-16 48-22.113281-11.054688 22.113281-11.054688zm0 0"/></svg>